<?xml version="1.0" encoding="UTF-8"?>
<svg id="Layer_1" xmlns="http://www.w3.org/2000/svg" version="1.1" viewBox="0 0 2279.4 744">
  <!-- Generator: Adobe Illustrator 29.8.1, SVG Export Plug-In . SVG Version: 2.1.1 Build 2)  -->
  <defs>
    <style>
      .st0 {
        fill: #fff;
      }

      .st0, .st1 {
        fill-rule: evenodd;
      }

      .st1 {
        fill: #255398;
      }
    </style>
  </defs>
  <path class="st1" d="M1907.4,744c205.4,0,372-166.5,372-372S2112.9,0,1907.4,0H372C166.5,0,0,166.5,0,372s166.5,372,372,372h1535.4Z"/>
  <path class="st0" d="M1901.7,699.4c180.7,0,327.1-146.5,327.1-327.1s-146.5-327.2-327.1-327.2H376.4c-180.7,0-327.2,146.5-327.2,327.2s146.5,327.1,327.2,327.1h1525.3Z"/>
  <path class="st1" d="M1903.4,630.4c142.8,0,258.6-115.8,258.6-258.6s-115.8-258.6-258.6-258.6H378.8c-142.8,0-258.6,115.7-258.6,258.6s115.8,258.6,258.6,258.6h1524.6Z"/>
  <path class="st0" d="M373,261.2h7.4c20.5,0,26.9,7.4,26.9,29.4v114.2c0,21.9-6.4,29.4-26.9,29.4h-7.4v-172.9ZM266.6,195.1v53.7c10.9,4.6,11.6,13.4,12,24v147.4c-.4,10.2-1.4,19.4-12,24v53.7h133.6c28.6,0,55.5-1.8,77.1-22.3,23-21.6,24.4-44.5,24.4-74.2v-113.5c0-29-2.5-56.6-27.2-76-21.6-16.6-51.3-17-77.1-17h-130.8s0,0,0,0ZM641.3,353.9h-32.5v-8.5c0-8.9,1.4-22.7,16.3-22.7s16.3,13.8,16.3,22.7v8.5ZM525.4,416.8c0,26.8,1.1,51.6,24.4,68.9,18.4,13.8,52.7,19.5,86.6,17,34.3-2.5,68.6-12.7,86.9-28.6v-55.9h-83.4v8.1c0,11.3-1.1,24.4-15.6,24.4s-15.9-14.5-15.6-25.5v-20.5h114.5v-52.7c1.4-54.4-18.7-81.7-100.7-81.3-78.1.4-98.6,24.7-97.2,85.5v60.5h0ZM742.4,498.1v-53.7c11.3-7.1,10.3-18.4,10.3-29.7v-136.1c0-11.3,1.1-22.6-10.3-29.7v-53.7h114.9v53.7c-11.3,7.1-10.3,18.4-10.3,29.7v155.2h9.2c24,0,23.7-14.5,23.7-33.6v-49.1h83.1v147.1h-220.6s0,0,0,0ZM1068,356c0-12.4-2.1-33.2,15.9-33.2s15.6,21.2,15.6,33.2v64.3c0,12,1.1,30.4-15.9,30.4s-15.6-18.4-15.6-30.4v-64.3ZM1182.9,355.3c0-28.3-1.8-55.1-28.6-71.4-19.4-11.3-53.4-13.1-76-13.1s-52.3,2.1-72.5,18c-20.9,16.3-21.2,42.4-21.2,66.5v58c0,29.3,0,56.5,27.2,74.6,19.5,13.1,52,14.9,75,14.9s55.1-2.1,75.3-19.4c20.1-17.3,20.8-45.3,20.8-70v-58ZM1294.6,289.2c22.6-15.2,42.4-19.1,60.1-18.4,17.3.7,32.5,6.4,41,14.8,15.2,14.5,17,30.8,17,49.8v83.4c0,11-1,23.3,9.9,29.4v49.8h-88.7c-5-22.6-4.6-46.3-4.6-69.3v-65c0-1.4,1.1-11.7-2.5-19.8-5.7-8.5-14.9-14.8-28.6-8.5v83.4c0,11-1.1,23.3,10.2,29.4v49.8h-103.9v-49.8c11-6.4,10.3-16.6,10.3-27.9v-67.5c0-12,.4-19.8-10.3-27.6v-49.8h90.2v13.8h0ZM1560.4,435.5c-4.6,2.5-9.7,3.8-14.9,3.9-17,0-17-19.5-17-31.5v-49.1c0-12.7,0-27.6,16.6-27.6s10.9,1.8,15.2,4.6v99.7h0ZM1654.1,275.4h-91.6v12.7c-15.9-12-35.4-17.3-55.2-17.3-49.8,0-62.2,30.4-62.2,78.8v83.8c0,48.8,24,69.3,66.1,69.3s34.3-5,49.1-16.3v14.1c0,12.7,2.1,34.6-16.3,34.6s-10.6-3.5-13.1-8.5c-2.1-5-2.5-11.3-2.5-16.3h-77.4v53.4c32.5,18,60.5,23.7,97.6,23.7s57.6-3.2,76.7-21.9c19.4-18.7,18.4-52.7,18.4-77.8v-135c0-11.3-.7-20.9,10.2-27.6v-49.8h0ZM1770.7,285.3c17-10.2,36.7-15.3,56.6-14.5,17.4.7,32.5,6.4,41,14.8,15.2,14.5,17,30.8,17,49.8v83.4c0,11-1.1,23.3,9.9,29.4v49.8h-88.7c-5-22.6-4.6-46.3-4.6-69.3v-65c0-1.4,1.1-11.7-2.5-19.8-5.7-8.5-14.9-14.8-28.7-8.5v83.4c0,11-1,23.3,10.3,29.4v49.8h-103.9v-49.8c10.9-6.4,10.3-16.6,10.3-27.9v-146c.3-11.3,1-23.4-10.6-29.3v-49.9h94v90.2h0ZM2009,418.9c0,11.3-1,22.6,10.6,29.4v49.8h-104.3v-49.8c11-6.7,10.3-16.6,10.3-27.9v-65.8c0-11.3,1.1-22.6-10.3-29.4v-49.8h93.7v143.5ZM1918.9,226.3c0-24,24.7-33.9,45.3-33.9s44.9,11.3,44.9,35.4-23.7,34.3-44.2,34.3c-21.9,0-46-10.6-46-35.7ZM536,229.2h179.8v15.6h-179.8v-15.6Z"/>
</svg>