<?xml version="1.0" encoding="UTF-8"?>
<svg id="Layer_1" xmlns="http://www.w3.org/2000/svg" version="1.1" viewBox="0 0 800 421.9">
  <!-- Generator: Adobe Illustrator 29.8.1, SVG Export Plug-In . SVG Version: 2.1.1 Build 2)  -->
  <path d="M619,214.1h-40.9l-.8,2.5,1.7,1.6c1.7,1.7,1.7,3.9.1,8.3l-28.7,82.9h26.1l11.2-32.8h9l9.7,32.8h26.3l-12.4-33.7c7.2-1.3,10.8-3.2,14.5-6.6,4.9-4.4,8.3-10.9,11.2-20,4-13.7,1.6-21.4-1-25.4-3.7-5.5-11.3-9.5-26.1-9.5h0ZM621.3,248.6c-1.5,4-3.3,4.7-5.7,5.6-1.6.7-5,.5-8.1.5h-12.5l6.6-20.3h15.2c4.4,0,6.4,3.1,6.4,5.7-.2,2.9-.9,5.8-1.9,8.5h0ZM371.6,297c10.4-11.1,19.9-41.3,19.8-57-.1-16-10.7-27.5-32.5-27.5h-2.9c-18,0-28.1,4.9-36.6,13.9-10.5,11.1-20.3,41.3-20.1,57,.1,16,10.7,27.5,32.6,27.5h3.3c17.8,0,28-4.9,36.4-13.9ZM360.4,263.3c-3.3,9.4-5.7,15.4-9.5,19.4-3,3.1-6.9,5.3-15.9,5.3s-10.9-3-10.9-8.4.9-9,4.7-19.4c3.3-9.4,5.7-15.4,9.7-19.4,3-3.1,6.9-5.3,16-5.3s11.1,3,11.1,8.4c-.4,3.7-1.3,9-5.1,19.4h0ZM234.1,193.2l-64.8.3,28.4-82.8c1.6-4.4,1.6-6.6-.1-8.3l-1.6-2.2.8-3.3h32.4l-24.7,73.4h37.6l-8,22.9ZM429,98.2l24.9-.4-32.3,94.4h-23.9l-12.2-61.6-20.7,61.6h-23.9l28.2-82.2c1.6-4.4,1.6-6-.1-7.7l-1.5-2.2.8-3.3h33.6l9.9,52.5,17.4-51.2ZM490.9,214.1l-52.3,95.3h-32.3l-3.9-83c-.2-4.7-.9-6.6-3.4-8.3l-2.6-1.7,1.2-2.5h29l1.7,68.7h.8l34.8-68.7h27.1ZM184.3,271.9h-63.1l8.7-22.9,71.8-22.9-3.1,7.7-49.6,16.3h43.7l-8.3,21.9ZM515.7,180.7c10.5-11.1,20-40.6,19.7-56.4-.3-16-10.7-27.5-32.6-27.5h-38l-.8,3.3,1.6,2.1c1.7,1.7,1.7,4,.1,8.5l-28.4,83.1h41.8c18,0,28.1-4,36.6-13h0ZM488.8,120.3h10.2c7,0,10.9,2.9,11.1,8.3,0,3.5-.9,8.6-4.6,18.9-3.3,9.3-5.7,14.4-9.5,18.3-3,3.1-6.9,4.4-16,4.4h-8.3l17.2-50ZM511.2,268.7l-5.5,18.8h37.2l-7.7,21.9h-63.7l28.4-82.7c1.6-4.3,1.6-6.7-.1-8.5l-1.7-2.1.9-3.5h68.2l-8,21.9h-36.2l-5.2,15.6h33.5l-7.2,18.7h-33.1ZM615.6,156l-71.8,23.8,3.1-8.1,49.7-17.1h-43.7l8.2-23.4h63.3l-8.9,24.8ZM267.8,214.1h-41.1l-.8,2.5,1.7,1.6c1.8,1.7,1.8,3.9.3,8.3l-28.7,82.9h26.3l11.2-32.9h8.8c0,.1,9.9,33.1,9.9,33.1h26.3l-12.4-33.7c7.2-1.3,10.8-3.2,14.3-6.5,5.1-4.6,8.5-10.9,11.3-20.2,4.2-13.7,1.5-21.2-1.1-25.4-3.9-5.6-11.4-9.7-26.2-9.7h0ZM270.2,248.6c-1.5,4-3.5,4.7-5.8,5.6-1.6.7-5,.5-8.1.5h-12.5l6.9-20.3h15.1c4.5,0,6.4,3.1,6.4,5.7-.3,2.9-1,5.7-2,8.5ZM291.7,96.9l-.8,3.2,1.3,1.6c2.1,1.9,1,4.3-6.1,16l-44.9,74.5h27.6l11.8-20.3h28.7l.2,20.3h25l-5.5-95.3h-37.4ZM291.4,153.1l16.3-29.7h.9l.5,29.7h-17.7ZM764.2,203.4c-.3-4.2-1-8.4-2.2-12.5-.1-.5-.2-1.3-.5-2.1-.4-1.5-.8-2.9-1.3-4.3l-1.4-3.9c-15.5-40.2-58.9-71.1-94.5-89.5-78.5-40.6-176.6-56.8-264.2-56.8h-.3c-87.9,0-185.7,16.1-264.3,56.8-44.1,22.8-100.2,63.5-100.2,119.1s38,81.9,76,105.3c1.3,1.6,2.7,2.2,3.8,3,1.3.8,2.5,1.8,3.8,2.5,1.3.8,2.6,1.7,3.9,2.3,1.4.8,2.9,1.7,4.2,2.5,2.9,1.6,5.7,3.1,8.5,4.6,78.6,40.6,176.5,56.2,264.4,56.2s185.7-15.6,264.3-56.2c44.3-22.8,100.3-64.1,100.3-119.5s0-3.4-.1-5.2c.1-.8.1-1.6,0-2.3h0ZM400,378c-196.6,0-356.9-80.1-356.9-166.9,0-87.4,160.3-166.8,356.9-166.8s356.9,79.4,356.9,166.8-160.3,166.9-356.9,166.9h0ZM680.6,60.2C596.9,16.9,493.6,0,400,0S203.1,16.9,119.4,60.2C62,89.7,0,140.4,0,210.9s62,121.2,119.4,150.8c83.7,43.2,187,60.2,280.6,60.2s196.9-16.9,280.6-60.2c57.4-29.7,119.4-80.2,119.4-150.8s-62-121.2-119.4-150.8h0ZM778,215.5c0,.8-.1,1.6-.1,2.2-.3,3.8-.8,7.6-1.6,11.3-8.3,42.2-45,81.8-105.7,113.2-72,37.2-168.1,57.8-270.6,57.8s-186.5-18-256.8-50.9c-4.7-2.2-9.1-4.6-13.7-6.8-69.3-35.8-107.4-82.4-107.4-131.2s38.2-95.4,107.4-131.3c72-37.1,168.1-57.7,270.6-57.7s198.4,20.6,270.4,57.7c69.3,35.8,107.6,82.4,107.6,131.3-.1,1.4-.1,2.9-.1,4.4h0Z"/>
</svg>