<?xml version="1.0" encoding="UTF-8"?>
<svg id="Layer_1" xmlns="http://www.w3.org/2000/svg" version="1.1" viewBox="0 0 2279.4 424.8">
  <!-- Generator: Adobe Illustrator 29.8.1, SVG Export Plug-In . SVG Version: 2.1.1 Build 2)  -->
  <defs>
    <style>
      .st0 {
        fill: #fff;
      }

      .st0, .st1, .st2, .st3 {
        fill-rule: evenodd;
      }

      .st1 {
        fill: #e6e6e7;
      }

      .st2 {
        fill: #113365;
      }

      .st3 {
        fill: #255398;
      }
    </style>
  </defs>
  <path class="st3" d="M424.8,424.8V0H0v424.8h424.8Z"/>
  <path class="st2" d="M257.2,310.9c11.7,7.7,17,11.2,28.5,17,9.6-3.9,20.8-.2,19,7.7-1.1,5.2-2.1,16.3-8.2,15.9-6.7-.5-14.2-3.7-23.2,1.5-6.1,3.4-14.4,18.9-19.8,20.2,4,5.3,7,9.5,7,9.5,15.3,0,26.7,7.8,32.7,11.5,24.9-10.5,34.7-6.1,59.4-1.6,3,.6,4.7-4.1,3.7-8-1.6-6.5-5.8-15.8-6-19.9v-54.4c-3.7-4.3-8.7-12.1-8.7-12.1-10.5,2.6-15.3,2-17.3-4-2.1-6.5-7.1-19.8-11.1-28.2,0,0,22.4-2.7,35.8-18.7,5-6,10.4-16,10.3-28-.2-27-21.7-66.6-27.1-80.3-3.2-8.2-12.6-29.9-3.5-38.8,3.5-3.5,10.9-5.4,16.1,5.5,2.5,5.3,3.6,3,3.2,3.9-6.5,10-10.4,15.4-7.7,24.6,3.8,12.8,20.4,25,25.7,28.4,0,0,8.9,5.8,10.6,4.4,4.2-3.2-6.1-20.2-5.9-23.6.2-3.2.3-6,1.4-9.3,1.2-3.7,3-9.2,4-14.8,3.3-17.9-11.5-42.8-28.8-45.1-4.6-.6-19.3,4.9-32.1,24-2.4,3.6-5.9,13-5.5,20.1-6.3-15-14-32.1-22.5-44.7-2.7-6-17-22.6-21.3-23.7-11.9-3.2-22.2-1.2-33.4-3-4.6.5-37.5,7.6-38.6,9.2,0,0-8,12.5-8,12.6-8.2,2-18.7,5.5-19.9,7.1-3.6,4.4-7.1,6.3-5.9,8,1.5,5.1,5,6.1,5,6.1h18c4.7-7.8,19-6.7,27.4.2,3,2.4,0,.4,1.4,4.2-4.9,2-12.6,4.5-18.2,3.1-7.7-1.1-23.1-2.1-27.4-.6l3.1,5c4.7,2,14.6,2.8,18.3,2.9,6,.1,14.9.7,22.6.1-3.9,5.6-6.2,12.9-11.5,12.9h-20.9c.3,1.4-4.4,1.1-4,2.4,0,0,3.1,3.6,4.8,6l12.5.6c5.7.3,5.3,5.7,3.3,8.8-3.5,5.1-13.3,14.7-21.7,15.5-18.8-16.6-38.1-32.7-57.7-48.3-3.5-2.8-7.4-4.1-13.2-5.1-7.9-1.2-15.9-1.9-23.9-1.9-3.6,0-22.5-2-23.8-.8l3.5,5.3c.5,2.8-.2,4.3-.8,9.5-.2,2.1-1,5.8-1,5.8,0,0,2.7,3.7,4.9,7,9.2-3.6,16.9,3.3,16.9,3.3l-6.8,4.9,6.5,9.1c11,4.1,18.7,4.5,34.7,1.3l30.8,37.6-56.3,2.9c-7.8.3-13.8,6.3-15.6,11.5-1.9,5.1-12.3,7.1-12.7,11.1l6.6,9.7,3.9-1.2c2.3,2.7,6,8.2,11.8,10.9,2-3.6,7.4-8.1,13.8-6.8,1.7,2.1,5.7,8.1,5.7,8.1,9.6,1.5,21.1-5.8,23.1-15.1l46.5-.6,25.7,30.1c-18,24.2-36.5,52.5-54,80.3,7.6,6.9,5,21.1-7.6,22.4-8.6.9-18-7-29.6-4.4-11.5,2.5-25,10.1-31.9,20,1.2,1.8,6.6,9.1,6.6,9.1,9.9,2.5,21.7,8,30,18.8,14.3-9.4,46.7-.8,58.8,3.2,3.3,1.4,6-1.1,5.8-5.8-.3-5.2-5.5-12.6-2.6-21.1,5.1-15.2,43.4-46.7,64.4-66.6,0,0,14.7,10.8,22.1,15.7h0ZM329.8,177.5c6.6,16.7,9,23.8,11.1,35.1,1.7,9.1.8,17.2-2.7,22-4.1,5.6-15.1,14.3-36.5,9.3h0c-6.7-9.8-19.9-28.5-25.9-37.7,4.3-15.6,6.2-19.4,9.6-34.3l8.5,4.3c3.9-11.1,13.6-38.6,15.5-48.6,0,0,3,5.5,5.2,11.9,4.8,14.2,10.5,25.9,15.3,38.1ZM216.2,65.8c-4.1,1.8-11.6,4.4-17.7,6.5-1.4-3.4-1.5-6-.9-10,5.1-.8,12.6-1.8,17.5-1.8s4,3.9,1.1,5.3h0Z"/>
  <path class="st0" d="M361.5,133.8c.2-3.2,1.1-6,2.2-9.3,1.2-3.8,3.3-9.2,4-14.9,2.1-17.9-8.4-34.4-25.7-36.8-4.6-.6-23-3.5-35.8,15.7-2.4,3.6-5.9,13-5.6,20.1-6.3-15-14.1-32.1-22.5-44.8-1.8-2.5-11.3-13.6-13.9-14.4-11.8-3.2-25.9-6.4-37.2-8.2-4.6.5-39.1,12.8-40.2,14.3,0,0-4,4.1-4,4.2-8.2,2-25.1,4.6-26.3,6.2-3.6,4.4-1.1,8.6,0,10.4.4.7,3.1,10.2,8,10.2h13.1c6.4-10.7,25-11.2,30.2,3.2-4.9,2-8.8,4.3-18.4,3.1-11.7-1.6-23.3,2.3-23.3,3.9,0,2.5,13.7,3.4,17.2,3.5,6,.1,15,.7,22.8.1-3.9,5.6-11.6,7.7-16.9,7.7h-20.9c.9,4.3,2.7,8.3,5.3,11.9h8.6c5.7.3,3.9,2.5,2.7,6-2.2,6.3-6.2,15.9-12.5,21.5-21.2-18.4-49.6-41.6-69.7-56.2-5.9-4.3-29.9-7.3-42-2.7-3.5,1.3-5.6,4.1-6.9,6.4l6,1.7c-11,6.6-4.2,19-4.2,19,5.3-1.1,13.7-3.8,22.5,9.2l-7.4,5.9c3.8,2.7,26.4,5.3,32.9,1.3,0,0,26.7,35.6,29.6,37.2,1.6.8-10.9,1.5-24.7,2.5-11.9.2-23.1.4-31.8.6-7.9.2-13.6,6.1-15.5,11.3-1.9,5.1-4,15.9-3.1,20.5l4.4-1.4c5.5,9.2,5.8,11.2,12.9,13.9,4-10.1,19-9,19-9l-.2,9.2c20.9-.1,22.9-15.2,22.9-15.2l40.7-.6,25.8,31.2c-21.1,22-35.9,49.1-51.8,78.2,7.7,7,5,21.2-7.6,22.5-8.6.9-18.1-7-29.6-4.4-14.1,3.1-11.2,14.4-22.3,29.2,11.1,2.8,22.7,10,30.4,18.8,15.3-9.7,46.1-2.2,58.2,1.8,2.7.9,3.8-4,2-8.1-1.4-3.3-3.5-8.5.2-17,3.2-7.7,39.6-44.6,65.3-68,.1-.1,9,6.6,18,13.2,14,10.3,32.5,20.6,32.5,20.6l3.7-.3c16.9-3.6,19.8,11.3,17.9,16.3-1.9,5-6.9,8-13,7.6-6.8-.6-14.2-3.8-23.2,1.5-9.1,5.1-5.2,22.1-10.7,29.2,15.3,0,27.6,7.8,33.5,11.6,25-10.5,32.3-7.3,57.5-3,1.8.4,3.2-4.6,1.2-7.4-1.8-2.7-4.6-9.7-4.1-15.5v-60.6c-16.1,2.2-23.5-4.6-26.3-13.3-2.1-6.5-8.2-19.7-12.2-28.1,0,0,24.9-.6,38.3-16.8,5-6,9.3-18.3,7-29.7-3.2-15.9-5.3-21.3-10.9-35.1-4.7-11.6-13.3-32.8-16.8-44.8-5-17-5.8-24.6-.5-34.1,3.2-5.7,10.3-11.1,18.3-7.2,5.3,2.6,4.1,4,3.6,5-6.5,10.1-9.1,23.1-6.4,32.3,3.8,12.8,16,23.2,21.2,26.6,0,0,8.9,5.8,10.7,4.4,4.3-3.2-6.7-18.7-6.3-23.7ZM213.8,61.7c-4.1,1.8-11.6,4.4-17.6,6.5-1.4-3.3-1.5-6-.9-9.9,5.1-.8,12.6-1.8,17.5-1.8s3.9,3.9,1.1,5.3ZM319.7,170c6.6,16.7,9,23.9,11.1,35.2,1.7,9.1.8,17.3-2.7,22-4.2,5.6-15.1,14.3-36.6,9.3h0c-8.3-12.2-16.5-24.4-24.6-36.8,4.3-15.7,6.2-19.5,9.6-34.4,0,0,9.4,5.1,9.8,3.3,1.6-6.6,12.3-37.8,14.2-47.8,0,0,1.6,4.5,3.8,10.9,4.8,14.3,10.5,25.9,15.4,38.2h0Z"/>
  <path class="st1" d="M319.7,170.1c6.6,16.7,9,23.8,11.1,35.1,1.7,8.9.8,17.1-2.7,21.9-4.1,5.6-15.1,14.4-36.6,9.3h0c-8.3-12.1-16.5-24.3-24.6-36.7,4.3-15.6,6.2-19.4,9.6-34.3,0,0,9.4,5.1,9.8,3.3,1.6-6.6,12.3-37.7,14.2-47.8,0,0,1.6,4.4,3.8,10.9,4.8,14.3,10.5,25.9,15.4,38.2h0ZM244.8,105.2c0,44.1-20.8,76.7-23.5,116-1.7,25.1,0,40.8,7.3,63.8,0,0,8.8,6.6,17.8,13.1,14,10.3,32.3,20.9,32.3,20.9l4.7-.4c15.9-3.7,18.7,11.4,16.8,16.4s-6.6,7.7-12.7,7.2c-6.7-.6-14.2-3.7-23.2,1.5-9.1,5.1-5.3,22.3-10.8,29.4,15.3,0,27.6,7.9,33.6,11.6,24.9-10.5,32.4-7.2,57.7-2.9,1.8.3,3-4.7,1.1-8.1-1.6-2.8-4.6-9.5-4.1-14.9v-60.7c-16.2,2.1-23.6-4.6-26.4-13.2-2.1-6.5-8-19.5-12-27.9,0,0,24.9-.6,38.3-16.7,5-6.1,9.2-16,7.4-29.6-2-14.8-7.4-27.3-10.7-35.7-4.4-11.6-13.6-31.8-17.1-43.9-5-17-6.6-24.3-.9-34.6,3.2-5.8,10.3-11.2,18.3-7.3,5.2,2.6,4.1,4.1,3.6,5-6.5,10.1-9.1,23.1-6.4,32.3,3.8,12.8,15.9,23.2,21.2,26.5,0,0,9,5.9,10.8,4.5,4.2-3.2-6.8-18.8-6.4-23.8.3-3.2,1.1-6,2.2-9.3,1.2-3.8,3.5-9.4,4.1-15.1,2-17.9-8.6-34.4-25.9-36.8-4.6-.6-22.9-3.5-35.8,15.7-2.4,3.6-6,12.3-5.6,20.2-6.3-15-13.9-32.1-22.4-44.8-1.8-2.5-11.3-13.6-13.9-14.4-10.6-2.8-31.4-7.8-37.1-8.1,0,0,17.7,19.8,17.7,63.9h0Z"/>
  <path class="st3" d="M2061.2,204c0,78.9-47.3,129-124,130.9-75.8,1.9-123.3-42.6-125.1-117.7-1.8-74.6,47.7-126.1,122.8-127.9,75.1-1.9,126.2,44.6,126.2,114.8h0ZM1672.9,288.7h113.2v35.7h-174.5V97.7h174.5v33h-113.2v56.8h91.4v27.5h-91.4v73.6h0ZM919.2,287.9h113.2v36.5h-174.5V97.7h174.5v32.2h-113.2v56.8h91.4v27.5h-91.4v73.7h0ZM1183.6,334.8h.4c41.2,0,65.5-10.9,87.3-32.8,13.1-13.1,21.2-28.9,21.2-66.1V97.7h-60.2s0,120.6,0,155.5-20.2,50.8-48.2,50.8h-.3c-28.1,0-49.1-18.8-49.1-53.3s0-153,0-153h-60.2v136.9c0,38.4,9.4,56,22.5,69.1,21.8,21.9,45.8,31.1,86.9,31.1h-.1ZM601.6,97.7h120.5c45.7,0,56.2,1.6,72.6,8.7,20.9,8.7,36.2,35.2,36.2,57.1,0,65.5-47.2,77.3-103.5,77.3h-61v83.5h-64.8V97.7h0ZM666.2,215.1h46.1c31.5,0,53.1-19.7,53.1-44.7s-22-44.8-50.2-44.8l-49,.3v89.2h0ZM2279.4,129.4h-76.1v195h-61.7v-195h-74.1v-31.7h212v31.7ZM1544.2,131.6l9-27.5c-24.5-11.2-55.2-15.1-81.9-15.1-109.8,0-145.9,73.8-145.9,123.7s43,122.1,134.6,122.1,99.3-21.5,99.3-21.5v-99h-60.6v85.9s-.8.7-2.1,1.4c-7.7,3.4-23.1,5.3-38.9,3.1-40.3-5.7-66.9-42.1-66.9-91.2s51.2-89.4,85.5-90.9c34.4-1.4,57.1,5.8,67.9,8.9h0ZM1873.7,217.9c1.4,56.7,25.3,88.7,64.7,88.6,51.8,0,62.6-59.9,61.8-93.8-1.3-55.3-21.1-94.4-63-94.3-41.8,0-65,37.6-63.6,99.5h0Z"/>
</svg>