<?xml version="1.0" encoding="UTF-8"?>
<svg id="Layer_1" xmlns="http://www.w3.org/2000/svg" version="1.1" viewBox="0 0 2279.4 835">
  <!-- Generator: Adobe Illustrator 29.8.1, SVG Export Plug-In . SVG Version: 2.1.1 Build 2)  -->
  <defs>
    <style>
      .st0 {
        fill: #fff;
      }

      .st0, .st1, .st2 {
        fill-rule: evenodd;
      }

      .st2 {
        fill: #cc2132;
      }
    </style>
  </defs>
  <path class="st1" d="M1120.7,327.5h-341.4V0h341.4v327.5Z"/>
  <path class="st2" d="M1509.3,327.5h-341.4V0h341.4v327.5Z"/>
  <path class="st1" d="M0,412.3h391.3v102.2h-131.2v313.6h-128.9v-313.6H0v-102.2ZM440.2,412.3h128.9v415.7h-128.9v-415.7ZM625.9,686.7h123.1c2.6,20,8,31.4,16.1,41.8,13.2,16.8,32.1,25.1,56.6,25.1s32.4-4.3,42.4-12.8c9.9-8.5,14.9-18.4,14.9-29.9s-4.8-20.5-14.3-29c-9.5-8.4-31.6-16.3-66.2-23.9-56.7-12.7-97-29.6-121.2-50.7-24.3-20.9-36.5-47.7-36.5-80.4s6.2-41.4,18.7-60.4c12.5-19,31.1-34,56.1-44.9,25-10.9,59.2-16.4,102.7-16.4s94,9.9,122.1,29.7c28,19.8,44.7,54.8,50,98h-121.9c-3.2-18.6-10-28.6-20.3-37.1-10.3-8.6-24.5-12.8-42.7-12.8s-26.2,3.2-33.8,9.5c-7.5,6.4-11.3,14.1-11.3,23.2s3.1,12.3,9.3,17.6c6,5.5,20.4,10.7,43.2,15.4,56.5,12.2,96.9,24.4,121.3,36.7,24.4,12.3,42.2,27.7,53.3,46,11.1,18.4,16.7,38.9,16.7,61.3s-7.4,51.3-22.2,73.7c-14.8,22.5-35.5,39.5-62,51-26.6,11.5-60.1,17.3-100.5,17.3-71,0-120.1-13.6-147.4-40.8-27.4-27.2-42.8-65.6-46.4-107.5h0ZM1032.4,686.7h123.1c2.7,20,8.1,31.4,16.2,41.8,13.2,16.8,32.1,25.1,56.6,25.1s32.4-4.3,42.4-12.8c9.9-8.5,14.9-18.4,14.9-29.9s-4.7-20.5-14.3-29c-9.5-8.4-31.6-16.3-66.1-23.9-56.7-12.7-97-29.6-121.2-50.7-24.3-20.9-36.5-47.7-36.5-80.4s6.2-41.4,18.7-60.4c12.5-19,31.1-34,56.1-44.9,25-10.9,59.2-16.4,102.7-16.4s94.1,9.9,122.1,29.7c28,19.8,44.7,54.8,50,98h-121.9c-3.2-18.6-10-28.6-20.3-37.1-10.3-8.6-24.5-12.8-42.6-12.8s-26.2,3.2-33.8,9.5c-7.5,6.4-11.3,14.1-11.3,23.2s3.1,12.3,9.3,17.6c6,5.5,20.4,10.7,43.2,15.4,56.5,12.2,96.9,24.4,121.3,36.7,24.4,12.3,42.2,27.7,53.3,46,11.1,18.4,16.7,38.9,16.7,61.3s-7.4,51.3-22.2,73.7c-14.8,22.5-35.5,39.5-62.1,51-26.5,11.5-60,17.3-100.5,17.3-71,0-120.1-13.6-147.5-40.8-27.3-27.2-42.8-65.6-46.4-107.5h0ZM1611.9,530.2c15.7-18.3,36.5-27.4,62.5-27.4s48.5,9,64.3,27c15.8,17.9,23.7,46.4,23.7,85.4s-7.5,78.5-22.7,96.4c-15.2,18-36.6,27-64.2,27s-48.2-9.2-63.8-27.5c-15.7-18.3-23.4-48.4-23.4-90.2,0-42.2,7.9-72.4,23.6-90.6ZM1488.1,741.8c19.1,32.3,44.1,56,75,70.9,30.8,14.9,69.7,22.3,116.7,22.3s84.9-8.6,115.9-25.9c31-17.3,54.6-41.5,71.1-72.6,16.4-31.1,24.6-70.9,24.6-119.5s-18.7-118.7-56.3-155.9c-37.5-37.1-91-55.8-160.4-55.8s-120.5,18.9-158.4,56.7c-37.9,37.7-56.9,90.6-56.9,158.5s9.6,89,28.7,121.3h0ZM1888.1,412.3h391.3v102.2h-131.2v313.6h-128.9v-313.6h-131.2v-102.2h0Z"/>
  <path class="st0" d="M823.7,29.4h251.9v71.9h-81.1v201.5h-89.6V101.3h-81.1V29.4ZM1302.3,199.7h-87.1v-71.5h87.1V41.8h71.7v86.4h86.7v71.5h-86.7v86.8h-71.7v-86.8Z"/>
</svg>