<?xml version="1.0" encoding="UTF-8"?>
<svg id="Layer_1" xmlns="http://www.w3.org/2000/svg" version="1.1" viewBox="0 0 78 28">
  <!-- Generator: Adobe Illustrator 29.8.1, SVG Export Plug-In . SVG Version: 2.1.1 Build 2)  -->
  <defs>
    <style>
      .st0 {
        fill: #404040;
      }

      .st1 {
        fill: #009bff;
      }
    </style>
  </defs>
  <path class="st0" d="M36,10.8c.4,0,.9-.1,1.2-.4.3-.4.4-.8.4-1.3V3.4h2.5v5.6c0,1.1-.3,2.1-1.1,2.9-.8.7-1.9,1.1-3,1-1.1,0-2.2-.3-3-1-.8-.7-1.2-1.8-1.2-2.9V3.4h2.5v5.6c0,.5.1.9.4,1.3.3.3.8.5,1.2.5Z"/>
  <path class="st0" d="M45.1,12.9c-.7,0-1.5-.1-2.1-.4-.7-.2-1.3-.6-1.8-1.1l1.2-1.5c.4.3.8.6,1.2.8.5.2,1,.3,1.5.3.3,0,.6,0,.9-.2.2-.1.3-.3.3-.6,0-.3-.1-.5-.4-.6-.4-.2-.8-.4-1.3-.5h-.6c-.7-.3-1.4-.6-1.9-1.1-.4-.5-.7-1.1-.7-1.7,0-.5.2-1.1.5-1.5.3-.4.8-.8,1.3-1,.6-.3,1.2-.4,1.9-.4.7,0,1.4.1,2,.4.6.2,1.2.6,1.7,1l-1.3,1.6c-.3-.3-.7-.5-1.2-.7-.4-.2-.9-.3-1.3-.3-.3,0-.6,0-.8.2-.2.1-.3.3-.3.6,0,.2.1.4.3.6.3.2.7.4,1.1.4l.7.2c.8.2,1.5.6,2.1,1.1.4.5.6,1,.6,1.6,0,.5-.2,1.1-.5,1.5-.3.4-.8.8-1.3,1-.6.3-1.3.4-1.9.4Z"/>
  <path class="st0" d="M56.5,12.7l-.6-1.7h-3.5l-.6,1.7h-2.5l3.4-9.2h2.9l3.3,9.2h-2.5ZM53,9.1h2.2l-1-3.2-1.2,3.2Z"/>
  <path class="st0" d="M34.6,24.5v-7.2h-2.8v-2h8v2h-2.7v7.2h-2.5Z"/>
  <path class="st0" d="M45.2,24.7c-.9,0-1.7-.2-2.5-.6-.7-.4-1.3-1-1.7-1.7-.4-.8-.6-1.6-.6-2.5,0-.7.1-1.3.3-1.9.2-.6.6-1.1,1-1.5.4-.4,1-.8,1.5-1,1.2-.5,2.6-.5,3.8,0,.6.2,1.1.6,1.5,1,.4.4.8,1,1,1.5.3.6.4,1.3.4,1.9,0,.9-.2,1.7-.6,2.5-.4.7-1,1.3-1.7,1.7-.8.4-1.6.6-2.5.6ZM45.2,22.6c.4,0,.8-.1,1.2-.3.3-.2.6-.6.8-1,.2-.4.3-.9.3-1.4,0-.5,0-1-.3-1.4-.2-.4-.4-.7-.8-1-.7-.5-1.6-.5-2.3,0-.3.3-.6.6-.8,1-.2.4-.3.9-.3,1.4,0,.5,0,1,.3,1.4.2.4.4.7.8,1,.3.2.8.3,1.2.3h0Z"/>
  <path class="st0" d="M51.4,24.5v-9.2h3.7c.8,0,1.7.2,2.4.6.7.4,1.3.9,1.7,1.6.8,1.5.8,3.3,0,4.8-.4.7-1,1.2-1.7,1.6-.7.4-1.6.6-2.4.6h-3.7ZM53.9,22.5h1.2c.6,0,1.2-.2,1.6-.7.4-.5.6-1.2.6-1.9,0-.7-.2-1.4-.6-1.9-.4-.5-1-.7-1.6-.7h-1.2v5.2Z"/>
  <path class="st0" d="M67.2,24.5l-.6-1.7h-3.5l-.6,1.7h-2.5l3.4-9.2h2.9l3.4,9.2h-2.6ZM63.8,20.9h2.2l-1.1-3.2-1.1,3.2Z"/>
  <path class="st0" d="M74.7,21.2v3.3h-2.6v-3.3l-3.3-5.9h2.9l1.7,3.7,1.7-3.7h2.9l-3.3,5.9Z"/>
  <circle class="st1" cx="14" cy="14" r="14"/>
</svg>