<?xml version="1.0" encoding="UTF-8"?>
<svg id="Layer_1" xmlns="http://www.w3.org/2000/svg" version="1.1" viewBox="0 0 1261.6 399">
  <!-- Generator: Adobe Illustrator 29.8.1, SVG Export Plug-In . SVG Version: 2.1.1 Build 2)  -->
  <defs>
    <style>
      .st0 {
        fill-rule: evenodd;
      }
    </style>
  </defs>
  <path id="Fill-1" class="st0" d="M830.5,100.2c10.5,12,33.5,11.4,47.1,20.2-18.4,4.7-41.6,4.7-58.4,11.2,4-10.3,7.5-21,11.3-31.4"/>
  <g id="Group-5">
    <path id="Fill-2" class="st0" d="M700.3,141.7c-5.5,25.2-17.1,54-23.6,81.9,35.7.5,73.3-6.8,109.9-9,5-6.6,7.4-15.8,10.1-24.7,7.4,10.4,12.5,29.9,5.6,44.9-55.7-.8-95.7,44.8-150.3,44.9-24.5,0-45.3-14.1-33.7-41.5,16.4-38.8,57-65.9,82-96.5"/>
    <path id="Fill-4" class="st0" d="M870.9,55.3c-14.2,1.7-24.4,17.3-33.7,22.4.7,0,1.3-.2,1.1-1.1,1.7-7.7,5-13.8,5.6-22.4-74.7-26.3-147.3,12.2-200.8,41.5-42.8,23.5-80.9,51-107.7,78.5,9.7-16.5,20-32.8,31.4-48.2,11.6-15.7,24.6-29.8,34.8-43.8-22.4-5.9-44.8-12-67.3-16.8-32.1-6.9-76.7-18.2-103.3-3.4-7.7,4.3-14,14.8-21.3,15.7-6.1.8-16.1-3.7-23.6-4.5-27.4-3-52.6-.5-77.4,4.5-23.2,4.6-72.3,12.9-78.6,34.8-4,14,4.9,27.7,3.4,41.5-1.5,13.7-14.7,31.7-21.3,42.6-8.2,13.4-16.4,25.2-30.3,31.4-8.4-41.8.7-79,7.9-114.4,4.4-21.8,13.3-44.2,5.6-66.2-21.4-3-39.4,14-60.6,22.4-39.8,16-84.1,30.5-89.8,76.3-3.2,25.8,6.5,42.3,13.5,60.6,14.8,39.4,33.2,72.8,55,103.2-5.9,10.9-19.9,13.8-21.3,29.1,6.3,9,19.5,10.1,32.5,10.1,37.7-.1,68.5-19,96.5-34.8,60.9-34.2,101.8-87,144.7-136.9,7.5-8.8,13.8-19.3,23.6-24.7,9.7,44.3-9.1,68-22.5,104.3-5.1,14-21.4,57.8-13.5,78.5,8.7,22.8,82.5,23.8,102.1,9,9.9-7.5,13.8-24.3,19.1-34.8,6.8-13.5,12.6-25.1,17.9-37,.3,49.2,36.8,63.6,76.3,74,83.9,22.2,168.5-17.4,214.3-44.9-5.7,36.4,8.4,40.1,37,46,74,15.3,148.5-2.4,208.7-16.9,55.2-13.3,99.5-22.7,107.7-77.4-8.8-7.6-30.9-6.7-46-4.5-44.5,6.5-87.6,29-147,24.7-10.8-.8-34.2-4.6-35.9-11.2-2.6-10.4,15.9-17.6,31.5-20.2,44.5-7.5,108.9.1,144.7-13.5,17.2-6.5,38-25.2,35.9-46-1.4-14-19.7-21.3-37-22.4-49.1-3.1-84.2,25.6-135.7,15.7,6.4-8.1,7.6-21.6,15.7-28.1,37.7-.8,74.3,6.7,110,4.5,49.6-3.1,77.5-24,101-51.6,2.5-3,8.8-6.2,6.7-11.2-86.1-12.7-203.5-47.4-309.6-34.4M1261.3,59.8c1.4,5.4-4.7,10.6-7.8,14.6-26.4,33.2-55.7,72.4-90.9,97.6,2.5,13.2,1.2,30.7-3.4,40.4,9.2,11.8,19,22.9,24.7,38.2-7.5,39.8-24.9,70.7-52.7,90.9-27.2,19.7-63.9,27.4-105.5,37-80.5,18.5-213,36.8-272.7-11.3-64.7,37.9-195.3,42.9-255.8-2.2-43,54.4-212.6,49.6-187.4-58.3-31.4,23.8-77.9,56.6-122.3,75.2-51.4,21.5-148.9,19.1-139.1-53.9,1.2-8.7,4.8-13.6,9-21.3-15-26.3-24.6-44.5-33.7-67.3C15,217.5,1.7,192.6.1,162-3.1,96.8,47.6,55.6,97.8,36.2c25.6-9.9,46.4-24.2,71.8-31.4,37.9-10.8,70.4,10,72.9,44.9,44.1-13.1,97.8-27.5,156-19.1,46.4-36,136.9-13.8,196.4,3.4,13.4,3.9,31.6,13.9,41.5,13.5,8.4-.3,23.7-11.8,32.5-15.7,41.7-18.5,96.3-38.2,156-28,11.3,1.9,21.6,7.9,33.6,9,8.2.7,18.1-1.8,26.9-2.2,139.4-7,255.5,30.4,375.9,49.2"/>
  </g>
</svg>